<svg xmlns="http://www.w3.org/2000/svg" width="256" height="256" viewBox="0 0 100 100">
  <path d="M45.90 45.33L45.90 45.33L38.09 53.18Q37.50 51.54 36.48 50.23Q35.47 48.93 34.20 48.03Q32.93 47.13 31.45 46.66Q29.96 46.19 28.40 46.19L28.40 46.19Q26.21 46.19 24.28 47.09Q22.34 47.99 20.92 49.61Q19.49 51.23 18.67 53.46Q17.85 55.68 17.85 58.38L17.85 58.38Q17.85 60.57 18.67 62.48Q19.49 64.39 20.92 65.84Q22.34 67.29 24.28 68.11Q26.21 68.93 28.40 68.93L28.40 68.93Q29.96 68.93 31.41 68.50Q32.85 68.07 34.12 67.27Q35.39 66.46 36.39 65.31Q37.38 64.16 38.01 62.75L38.01 62.75L45.82 70.61Q44.34 72.71 42.40 74.39Q40.47 76.07 38.22 77.25Q35.98 78.42 33.50 79.02Q31.02 79.63 28.40 79.63L28.40 79.63Q23.98 79.63 20.10 77.97Q16.21 76.31 13.30 73.42Q10.39 70.53 8.71 66.66Q7.03 62.79 7.03 58.38L7.03 58.38Q7.03 53.57 8.71 49.39Q10.39 45.21 13.30 42.11Q16.21 39.00 20.10 37.21Q23.98 35.41 28.40 35.41L28.40 35.41Q31.02 35.41 33.54 36.07Q36.05 36.74 38.34 38.01Q40.63 39.28 42.56 41.11Q44.49 42.95 45.90 45.33ZM92.97 57.56L92.97 57.56Q92.97 62.48 91.29 66.54Q89.61 70.61 86.72 73.52Q83.83 76.43 79.94 78.03Q76.05 79.63 71.60 79.63L71.60 79.63Q67.19 79.63 63.30 77.99Q59.41 76.35 56.50 73.42Q53.59 70.49 51.91 66.45Q50.23 62.40 50.23 57.56L50.23 57.56L50.23 20.37L60.94 20.37L60.94 39.90Q61.80 38.81 63.03 37.95Q64.26 37.09 65.68 36.54Q67.11 36.00 68.63 35.70Q70.16 35.41 71.60 35.41L71.60 35.41Q76.05 35.41 79.94 37.07Q83.83 38.73 86.72 41.70Q89.61 44.67 91.29 48.71Q92.97 52.75 92.97 57.56ZM82.23 57.56L82.23 57.56Q82.23 55.14 81.39 53.05Q80.55 50.96 79.10 49.43Q77.66 47.91 75.72 47.05Q73.79 46.19 71.60 46.19L71.60 46.19Q69.41 46.19 67.48 47.15Q65.55 48.11 64.10 49.69Q62.66 51.27 61.84 53.32Q61.02 55.37 61.02 57.56L61.02 57.56Q61.02 59.98 61.84 62.05Q62.66 64.12 64.10 65.64Q65.55 67.17 67.48 68.05Q69.41 68.93 71.60 68.93L71.60 68.93Q73.79 68.93 75.72 68.05Q77.66 67.17 79.10 65.64Q80.55 64.12 81.39 62.05Q82.23 59.98 82.23 57.56Z" fill="#28363d"></path>
</svg>
